<?xml version="1.0" encoding="utf-8" ?>
<svg baseProfile="tiny" height="470" version="1.2" viewBox="0,0,500,470" width="500" xmlns="http://www.w3.org/2000/svg" xmlns:ev="http://www.w3.org/2001/xml-events" xmlns:xlink="http://www.w3.org/1999/xlink"><defs><linearGradient id="grad1" x1="0%" x2="100%" y1="0%" y2="100%"><stop offset="0.0" stop-color="#2e7d32" stop-opacity="1" /><stop offset="1.0" stop-color="#1b5e20" stop-opacity="1" /></linearGradient></defs><rect fill="url(#grad1)" height="470" width="500" x="0" y="0" /><rect fill="none" height="430" stroke="#145a2a" stroke-width="4" width="500" x="0" y="0" /><circle cx="40" cy="40" fill="white" r="30" stroke="#145a2a" stroke-width="3" /><circle cx="110" cy="40" fill="white" r="30" stroke="#145a2a" stroke-width="3" /><circle cx="180" cy="40" fill="white" r="30" stroke="#145a2a" stroke-width="3" /><circle cx="250" cy="40" fill="white" r="30" stroke="#145a2a" stroke-width="3" /><circle cx="320" cy="40" fill="white" r="30" stroke="#145a2a" stroke-width="3" /><circle cx="390" cy="40" fill="white" r="30" stroke="#145a2a" stroke-width="3" /><circle cx="460" cy="40" fill="white" r="30" stroke="#145a2a" stroke-width="3" /><circle cx="40" cy="110" fill="white" r="30" stroke="#145a2a" stroke-width="3" /><circle cx="110" cy="110" fill="white" r="30" stroke="#145a2a" stroke-width="3" /><circle cx="180" cy="110" fill="white" r="30" stroke="#145a2a" stroke-width="3" /><circle cx="250" cy="110" fill="white" r="30" stroke="#145a2a" stroke-width="3" /><circle cx="320" cy="110" fill="white" r="30" stroke="#145a2a" stroke-width="3" /><circle cx="390" cy="110" fill="white" r="30" stroke="#145a2a" stroke-width="3" /><circle cx="460" cy="110" fill="white" r="30" stroke="#145a2a" stroke-width="3" /><circle cx="40" cy="180" fill="white" r="30" stroke="#145a2a" stroke-width="3" /><circle cx="110" cy="180" fill="white" r="30" stroke="#145a2a" stroke-width="3" /><circle cx="180" cy="180" fill="white" r="30" stroke="#145a2a" stroke-width="3" /><circle cx="250" cy="180" fill="white" r="30" stroke="#145a2a" stroke-width="3" /><circle cx="320" cy="180" fill="white" r="30" stroke="#145a2a" stroke-width="3" /><circle cx="390" cy="180" fill="white" r="30" stroke="#145a2a" stroke-width="3" /><circle cx="460" cy="180" fill="white" r="30" stroke="#145a2a" stroke-width="3" /><circle cx="40" cy="250" fill="white" r="30" stroke="#145a2a" stroke-width="3" /><circle cx="110" cy="250" fill="white" r="30" stroke="#145a2a" stroke-width="3" /><circle cx="180" cy="250" fill="white" r="30" stroke="#145a2a" stroke-width="3" /><circle cx="250" cy="250" fill="white" r="30" stroke="#145a2a" stroke-width="3" /><circle cx="320" cy="250" fill="white" r="30" stroke="#145a2a" stroke-width="3" /><circle cx="390" cy="250" fill="white" r="30" stroke="#145a2a" stroke-width="3" /><circle cx="460" cy="250" fill="white" r="30" stroke="#145a2a" stroke-width="3" /><circle cx="40" cy="320" fill="white" r="30" stroke="#145a2a" stroke-width="3" /><circle cx="110" cy="320" fill="white" r="30" stroke="#145a2a" stroke-width="3" /><circle cx="180" cy="320" fill="white" r="30" stroke="#145a2a" stroke-width="3" /><circle cx="250" cy="320" fill="white" r="30" stroke="#145a2a" stroke-width="3" /><circle cx="320" cy="320" fill="white" r="30" stroke="#145a2a" stroke-width="3" /><circle cx="390" cy="320" fill="white" r="30" stroke="#145a2a" stroke-width="3" /><circle cx="460" cy="320" fill="white" r="30" stroke="#145a2a" stroke-width="3" /><circle cx="40" cy="390" fill="white" r="30" stroke="#145a2a" stroke-width="3" /><circle cx="110" cy="390" fill="white" r="30" stroke="#145a2a" stroke-width="3" /><circle cx="180" cy="390" fill="white" r="30" stroke="#145a2a" stroke-width="3" /><circle cx="250" cy="390" fill="white" r="30" stroke="#145a2a" stroke-width="3" /><circle cx="320" cy="390" fill="white" r="30" stroke="#145a2a" stroke-width="3" /><circle cx="390" cy="390" fill="white" r="30" stroke="#145a2a" stroke-width="3" /><circle cx="460" cy="390" fill="white" r="30" stroke="#145a2a" stroke-width="3" /><line stroke="#0d3d1d" stroke-width="4" x1="0" x2="500" y1="430" y2="430" /></svg>